<?xml version="1.0" encoding="utf-8"?>
<!-- Generator: Adobe Illustrator 24.1.1, SVG Export Plug-In . SVG Version: 6.00 Build 0)  -->
<svg version="1.1" id="Layer_2_1_" xmlns="http://www.w3.org/2000/svg" xmlns:xlink="http://www.w3.org/1999/xlink" x="0px" y="0px"
	 viewBox="0 0 43.7 37.9" style="enable-background:new 0 0 43.7 37.9;" xml:space="preserve">
<style type="text/css">
	.st0{fill:url(#SVGID_1_);}
	.st1{fill:url(#SVGID_2_);}
	.st2{fill:url(#SVGID_3_);}
	.st3{fill:url(#SVGID_4_);}
	.st4{fill:url(#SVGID_5_);}
	.st5{fill:url(#SVGID_6_);}
	.st6{fill:url(#SVGID_7_);}
	.st7{fill:url(#SVGID_8_);}
	.st8{fill:url(#SVGID_9_);}
	.st9{fill:url(#SVGID_10_);}
	.st10{fill:url(#SVGID_11_);}
	.st11{fill:url(#SVGID_12_);}
	.st12{fill:url(#SVGID_13_);}
	.st13{fill:url(#SVGID_14_);}
	.st14{fill:url(#SVGID_15_);}
	.st15{fill:url(#SVGID_16_);}
	.st16{fill:url(#SVGID_17_);}
	.st17{fill:url(#SVGID_18_);}
	.st18{fill:url(#SVGID_19_);}
	.st19{fill:url(#SVGID_20_);}
	.st20{fill:url(#SVGID_21_);}
	.st21{fill:url(#SVGID_22_);}
	.st22{fill:url(#SVGID_23_);}
	.st23{fill:url(#SVGID_24_);}
	.st24{fill:#00C9DB;}
	.st25{fill:#00FFFF;}
</style>
<linearGradient id="SVGID_1_" gradientUnits="userSpaceOnUse" x1="2768.0024" y1="3966.812" x2="2788.6565" y2="3966.812" gradientTransform="matrix(5.190019e-02 -0.9987 -0.9987 -5.190019e-02 3851.0188 3003.0466)">
	<stop  offset="0" style="stop-color:#FCBA39"/>
	<stop  offset="1" style="stop-color:#D96D2D"/>
</linearGradient>
<path class="st0" d="M33.9,19.1L33.9,19.1C33.9,19.1,33.9,19.1,33.9,19.1L33.9,19.1z"/>
<linearGradient id="SVGID_2_" gradientUnits="userSpaceOnUse" x1="2767.9695" y1="3966.3533" x2="2788.6565" y2="3966.3533" gradientTransform="matrix(5.190019e-02 -0.9987 -0.9987 -5.190019e-02 3851.0188 3003.0466)">
	<stop  offset="0" style="stop-color:#FCBA39"/>
	<stop  offset="1" style="stop-color:#D96D2D"/>
</linearGradient>
<path class="st1" d="M34.3,20.1L34.3,20.1L34.3,20.1L34.3,20.1z"/>
<radialGradient id="SVGID_3_" cx="2794.9172" cy="3996.0791" r="14.151" gradientTransform="matrix(5.300000e-02 -1.035 -1.027 -5.400000e-02 3972.51 3128.6841)" gradientUnits="userSpaceOnUse">
	<stop  offset="0" style="stop-color:#F9B314"/>
	<stop  offset="1" style="stop-color:#EC5222"/>
</radialGradient>
<path class="st2" d="M34.3,20c-0.1-0.2-0.2-0.5-0.3-0.7c0.1,0.1,0.1,0.3,0.2,0.4C34.2,19.8,34.3,19.9,34.3,20z"/>
<radialGradient id="SVGID_4_" cx="33.7025" cy="21.294" r="0.3522" gradientTransform="matrix(1 0 0 -1 0 39.929)" gradientUnits="userSpaceOnUse">
	<stop  offset="0" style="stop-color:#F9B314"/>
	<stop  offset="1" style="stop-color:#EC5222"/>
</radialGradient>
<path class="st3" d="M33.5,18.2c0.1,0.3,0.3,0.6,0.4,0.9C33.8,18.8,33.6,18.5,33.5,18.2z"/>
<linearGradient id="SVGID_5_" gradientUnits="userSpaceOnUse" x1="2767.8313" y1="3966.4287" x2="2788.7363" y2="3966.4287" gradientTransform="matrix(5.190019e-02 -0.9987 -0.9987 -5.190019e-02 3851.0188 3003.0466)">
	<stop  offset="0" style="stop-color:#FCBA39"/>
	<stop  offset="1" style="stop-color:#D96D2D"/>
</linearGradient>
<path class="st4" d="M34.3,20.1L34.3,20.1c-0.1-0.1-0.1-0.2-0.1-0.3C34.2,19.8,34.3,19.9,34.3,20.1z"/>
<radialGradient id="SVGID_6_" cx="34.2725" cy="20.038" r="0.1255" gradientTransform="matrix(1 0 0 -1 0 39.929)" gradientUnits="userSpaceOnUse">
	<stop  offset="0" style="stop-color:#F9B314"/>
	<stop  offset="1" style="stop-color:#EC5222"/>
</radialGradient>
<path class="st5" d="M34.3,20.1L34.3,20.1c-0.1-0.1-0.1-0.2-0.1-0.3C34.2,19.8,34.3,19.9,34.3,20.1z"/>
<linearGradient id="SVGID_7_" gradientUnits="userSpaceOnUse" x1="2767.8213" y1="3968.1624" x2="2788.7415" y2="3968.1624" gradientTransform="matrix(5.190019e-02 -0.9987 -0.9987 -5.190019e-02 3851.0188 3003.0466)">
	<stop  offset="0" style="stop-color:#FCBA39"/>
	<stop  offset="1" style="stop-color:#D96D2D"/>
</linearGradient>
<path class="st6" d="M32.1,27.8c0-0.1,0.1-0.1,0.1-0.2C32.2,27.7,32.1,27.7,32.1,27.8z"/>
<radialGradient id="SVGID_8_" cx="32.13" cy="12.215" r="7.355222e-02" gradientTransform="matrix(1 0 0 -1 0 39.929)" gradientUnits="userSpaceOnUse">
	<stop  offset="0" style="stop-color:#F9B314"/>
	<stop  offset="1" style="stop-color:#EC5222"/>
</radialGradient>
<path class="st7" d="M32.1,27.8c0-0.1,0.1-0.1,0.1-0.2C32.2,27.7,32.1,27.7,32.1,27.8z"/>
<linearGradient id="SVGID_9_" gradientUnits="userSpaceOnUse" x1="2767.8633" y1="3968.3237" x2="2788.6145" y2="3968.3237" gradientTransform="matrix(5.190019e-02 -0.9987 -0.9987 -5.190019e-02 3851.0188 3003.0466)">
	<stop  offset="0" style="stop-color:#FCBA39"/>
	<stop  offset="1" style="stop-color:#D96D2D"/>
</linearGradient>
<path class="st8" d="M31.9,27.9C31.9,27.9,32,27.9,31.9,27.9C32,27.9,31.9,27.9,31.9,27.9z"/>
<radialGradient id="SVGID_10_" cx="31.9585" cy="12.0245" r="4.302589e-02" gradientTransform="matrix(1 0 0 -1 0 39.929)" gradientUnits="userSpaceOnUse">
	<stop  offset="0" style="stop-color:#F9B314"/>
	<stop  offset="1" style="stop-color:#EC5222"/>
</radialGradient>
<path class="st9" d="M31.9,27.9C31.9,27.9,32,27.9,31.9,27.9C32,27.9,31.9,27.9,31.9,27.9z"/>
<linearGradient id="SVGID_11_" gradientUnits="userSpaceOnUse" x1="2767.8293" y1="3967.0569" x2="2788.7383" y2="3967.0569" gradientTransform="matrix(5.190019e-02 -0.9987 -0.9987 -5.190019e-02 3851.0188 3003.0466)">
	<stop  offset="0" style="stop-color:#FCBA39"/>
	<stop  offset="1" style="stop-color:#D96D2D"/>
</linearGradient>
<path class="st10" d="M33.9,19.1c-0.1-0.3-0.3-0.6-0.4-0.9C33.6,18.5,33.8,18.8,33.9,19.1C33.9,19.1,33.9,19.1,33.9,19.1z"/>
<radialGradient id="SVGID_12_" cx="33.708" cy="21.2825" r="0.3628" gradientTransform="matrix(1 0 0 -1 0 39.929)" gradientUnits="userSpaceOnUse">
	<stop  offset="0" style="stop-color:#F9B314"/>
	<stop  offset="1" style="stop-color:#EC5222"/>
</radialGradient>
<path class="st11" d="M33.9,19.1c-0.1-0.3-0.3-0.6-0.4-0.9C33.6,18.5,33.8,18.8,33.9,19.1C33.9,19.1,33.9,19.1,33.9,19.1z"/>
<linearGradient id="SVGID_13_" gradientUnits="userSpaceOnUse" x1="2784.512" y1="3966.9365" x2="2777.97" y2="3965.8467" gradientTransform="matrix(5.190019e-02 -0.9987 -0.9987 -5.190019e-02 3851.0188 3003.0466)">
	<stop  offset="0" style="stop-color:#F0584B"/>
	<stop  offset="1" style="stop-color:#C73F3D"/>
</linearGradient>
<path class="st12" d="M34.4,20.1L34.4,20.1C34.4,20.1,34.4,20.1,34.4,20.1L34.4,20.1L34.4,20.1z"/>
<linearGradient id="SVGID_14_" gradientUnits="userSpaceOnUse" x1="2784.4812" y1="3967.2197" x2="2777.9082" y2="3966.1248" gradientTransform="matrix(5.190019e-02 -0.9987 -0.9987 -5.190019e-02 3851.0188 3003.0466)">
	<stop  offset="0" style="stop-color:#F0584B"/>
	<stop  offset="1" style="stop-color:#C73F3D"/>
</linearGradient>
<path class="st13" d="M34,19.3l-0.1-0.2C34,19.2,34,19.2,34,19.3L34,19.3z"/>
<linearGradient id="SVGID_15_" gradientUnits="userSpaceOnUse" x1="2783.9531" y1="3970.344" x2="2777.3801" y2="3969.248" gradientTransform="matrix(5.190019e-02 -0.9987 -0.9987 -5.190019e-02 3851.0188 3003.0466)">
	<stop  offset="0" style="stop-color:#F0584B"/>
	<stop  offset="1" style="stop-color:#C73F3D"/>
</linearGradient>
<path class="st14" d="M31.7,28.1c0.1-0.1,0.2-0.1,0.2-0.2C31.8,28,31.8,28.1,31.7,28.1z"/>
<linearGradient id="SVGID_16_" gradientUnits="userSpaceOnUse" x1="2784.1367" y1="3970.1111" x2="2777.4778" y2="3969.001" gradientTransform="matrix(5.190019e-02 -0.9987 -0.9987 -5.190019e-02 3851.0188 3003.0466)">
	<stop  offset="0" style="stop-color:#F0584B"/>
	<stop  offset="1" style="stop-color:#C73F3D"/>
</linearGradient>
<path class="st15" d="M32,27.9C32,27.8,32,27.8,32,27.9C32,27.8,32,27.8,32,27.9z"/>
<linearGradient id="SVGID_17_" gradientUnits="userSpaceOnUse" x1="2767.8135" y1="3966.7832" x2="2788.7463" y2="3966.7832" gradientTransform="matrix(5.190019e-02 -0.9987 -0.9987 -5.190019e-02 3851.0188 3003.0466)">
	<stop  offset="0" style="stop-color:#FCBA39"/>
	<stop  offset="1" style="stop-color:#D96D2D"/>
</linearGradient>
<path class="st16" d="M34,19.2C34,19.2,34,19.2,34,19.2l-0.1-0.1C33.9,19.2,34,19.2,34,19.2z"/>
<linearGradient id="SVGID_18_" gradientUnits="userSpaceOnUse" x1="2784.4751" y1="3967.2375" x2="2777.9092" y2="3966.1436" gradientTransform="matrix(5.190019e-02 -0.9987 -0.9987 -5.190019e-02 3851.0188 3003.0466)">
	<stop  offset="0" style="stop-color:#F0584B"/>
	<stop  offset="1" style="stop-color:#C73F3D"/>
</linearGradient>
<path class="st17" d="M34,19.2C34,19.2,34,19.2,34,19.2l-0.1-0.1C33.9,19.2,34,19.2,34,19.2z"/>
<linearGradient id="SVGID_19_" gradientUnits="userSpaceOnUse" x1="2767.1543" y1="3966.3435" x2="2789.1284" y2="3966.3435" gradientTransform="matrix(5.190019e-02 -0.9987 -0.9987 -5.190019e-02 3851.0188 3003.0466)">
	<stop  offset="0" style="stop-color:#FCBA39"/>
	<stop  offset="1" style="stop-color:#D96D2D"/>
</linearGradient>
<path class="st18" d="M34.3,20.1L34.3,20.1L34.3,20.1L34.3,20.1z"/>
<linearGradient id="SVGID_20_" gradientUnits="userSpaceOnUse" x1="2784.7043" y1="3966.9805" x2="2777.7893" y2="3965.8284" gradientTransform="matrix(5.190019e-02 -0.9987 -0.9987 -5.190019e-02 3851.0188 3003.0466)">
	<stop  offset="0" style="stop-color:#F0584B"/>
	<stop  offset="1" style="stop-color:#C73F3D"/>
</linearGradient>
<path class="st19" d="M34.3,20.1L34.3,20.1L34.3,20.1L34.3,20.1z"/>
<radialGradient id="SVGID_21_" cx="34.0905" cy="20.453" r="0.191" gradientTransform="matrix(1 0 0 -1 0 39.929)" gradientUnits="userSpaceOnUse">
	<stop  offset="0" style="stop-color:#F9B314"/>
	<stop  offset="1" style="stop-color:#EC5222"/>
</radialGradient>
<path class="st20" d="M34.2,19.7c-0.1-0.1-0.1-0.3-0.2-0.4l0-0.1C34.1,19.4,34.1,19.6,34.2,19.7z"/>
<linearGradient id="SVGID_22_" gradientUnits="userSpaceOnUse" x1="2784.4941" y1="3967.1392" x2="2777.9221" y2="3966.0442" gradientTransform="matrix(5.190019e-02 -0.9987 -0.9987 -5.190019e-02 3851.0188 3003.0466)">
	<stop  offset="0" style="stop-color:#F0584B"/>
	<stop  offset="1" style="stop-color:#C73F3D"/>
</linearGradient>
<path class="st21" d="M34.2,19.7c-0.1-0.1-0.1-0.3-0.2-0.4l0-0.1C34.1,19.4,34.1,19.6,34.2,19.7z"/>
<radialGradient id="SVGID_23_" cx="34.368" cy="19.8195" r="3.394311e-02" gradientTransform="matrix(1 0 0 -1 0 39.929)" gradientUnits="userSpaceOnUse">
	<stop  offset="0" style="stop-color:#F9B314"/>
	<stop  offset="1" style="stop-color:#EC5222"/>
</radialGradient>
<path class="st22" d="M34.4,20.2L34.4,20.2L34.4,20.2C34.4,20.1,34.4,20.1,34.4,20.2z"/>
<linearGradient id="SVGID_24_" gradientUnits="userSpaceOnUse" x1="2784.5061" y1="3966.9336" x2="2777.9741" y2="3965.8457" gradientTransform="matrix(5.190019e-02 -0.9987 -0.9987 -5.190019e-02 3851.0188 3003.0466)">
	<stop  offset="0" style="stop-color:#F0584B"/>
	<stop  offset="1" style="stop-color:#C73F3D"/>
</linearGradient>
<path class="st23" d="M34.4,20.2L34.4,20.2L34.4,20.2C34.4,20.1,34.4,20.1,34.4,20.2z"/>
<path class="st24" d="M24,4.8L24,4.8c-1.7-1.4-3.9-1.9-6.1-1.3c-0.7,0.1-1.3,0.4-1.9,0.7c0,0,0.1,0,0.1,0l0,0
	c0.8-0.2,2.2,0.4,3.7,1.6c1.2-0.3,2.4-0.6,3.5-0.7L24,4.8z"/>
<path class="st25" d="M2.5,3C2.4,3,2.4,3,2.3,3c0,0.1,0,0.1,0,0.1C2.9,5,3.4,6.9,4,8.7c0,0.2,0,0.2,0.2,0.2c1.9,0,3.7,0,5.6,0
	c1.7,0,3.4,0,5.1,0c0.9,0,1.6,0.4,2.1,1.3c0.1,0.2,0.2,0.4,0.2,0.6c0,2.4,0,4.8,0,7.2c-0.1,0-0.1-0.1-0.1-0.1
	c-0.9-0.9-1.8-1.8-2.6-2.6c-0.1-0.1-0.2-0.2-0.4-0.2C11,15,8,15,4.9,15c-0.3,0-0.2,0-0.2,0.2c0,1.8,0,3.6,0,5.4c0,0.3,0,0.3,0.2,0.3
	c4,0,8,0,12,0c0.1,0,0.2,0,0.2,0c0,5,0,11.8,0,15.8c0,0.3,0,0.3,0.3,0.3c1.8,0,3.5,0,5.3,0c0.3,0,0.3,0,0.3-0.3c0-7.8,0-19.7,0-27.5
	c0-0.3,0-0.3,0.3-0.3c3.3,0,6.7,0,10,0c0.1,0,0.3,0,0.4,0c1.1,0.1,1.9,1,1.9,2.1c0,1.6,0,3.2,0,4.8c0,0.8-0.4,1.4-1,1.8
	c-0.4,0.2-0.8,0.3-1.3,0.3c-2,0-4,0-6,0c-0.2,0-0.2,0-0.3,0.2c-0.3,1-0.6,1.9-0.9,2.9c-0.3,0.8-0.5,1.7-0.8,2.5
	c-0.1,0.2-0.1,0.2,0.2,0.2c2.7,0,5.4,0,8,0c0.5,0,0.9,0,1.4-0.1c1.9-0.3,3.4-1.2,4.7-2.7c1.3-1.5,1.9-3.2,1.9-5.1c0-1.6,0-3.3,0-4.9
	c0-0.6-0.1-1.2-0.2-1.8c-0.8-3.6-4-6.2-7.7-6.2L2.5,3z"/>
</svg>
