<?xml version="1.0" encoding="utf-8"?>
<!-- Generator: Adobe Illustrator 24.1.1, SVG Export Plug-In . SVG Version: 6.00 Build 0)  -->
<svg version="1.1" id="Layer_2_1_" xmlns="http://www.w3.org/2000/svg" xmlns:xlink="http://www.w3.org/1999/xlink" x="0px" y="0px"
	 viewBox="0 0 43.7 37.9" style="enable-background:new 0 0 43.7 37.9;" xml:space="preserve">
<path class="st0" d="M33.9,19.1L33.9,19.1C33.9,19.1,33.9,19.1,33.9,19.1L33.9,19.1z"/>
<path class="st1" d="M34.3,20.1L34.3,20.1L34.3,20.1L34.3,20.1z"/>
<path class="st2" d="M34.3,20c-0.1-0.2-0.2-0.5-0.3-0.7c0.1,0.1,0.1,0.3,0.2,0.4C34.2,19.8,34.3,19.9,34.3,20z"/>
<path class="st3" d="M33.5,18.2c0.1,0.3,0.3,0.6,0.4,0.9C33.8,18.8,33.6,18.5,33.5,18.2z"/>
<path class="st4" d="M34.3,20.1L34.3,20.1c-0.1-0.1-0.1-0.2-0.1-0.3C34.2,19.8,34.3,19.9,34.3,20.1z"/>
<path class="st5" d="M34.3,20.1L34.3,20.1c-0.1-0.1-0.1-0.2-0.1-0.3C34.2,19.8,34.3,19.9,34.3,20.1z"/>
<path class="st6" d="M32.1,27.8c0-0.1,0.1-0.1,0.1-0.2C32.2,27.7,32.1,27.7,32.1,27.8z"/>
<path class="st7" d="M32.1,27.8c0-0.1,0.1-0.1,0.1-0.2C32.2,27.7,32.1,27.7,32.1,27.8z"/>
<path class="st8" d="M31.9,27.9C31.9,27.9,32,27.9,31.9,27.9C32,27.9,31.9,27.9,31.9,27.9z"/>
<path class="st9" d="M31.9,27.9C31.9,27.9,32,27.9,31.9,27.9C32,27.9,31.9,27.9,31.9,27.9z"/>
<path class="st10" d="M33.9,19.1c-0.1-0.3-0.3-0.6-0.4-0.9C33.6,18.5,33.8,18.8,33.9,19.1C33.9,19.1,33.9,19.1,33.9,19.1z"/>
<path class="st11" d="M33.9,19.1c-0.1-0.3-0.3-0.6-0.4-0.9C33.6,18.5,33.8,18.8,33.9,19.1C33.9,19.1,33.9,19.1,33.9,19.1z"/>
<path class="st12" d="M34.4,20.1L34.4,20.1C34.4,20.1,34.4,20.1,34.4,20.1L34.4,20.1L34.4,20.1z"/>
<path class="st13" d="M34,19.3l-0.1-0.2C34,19.2,34,19.2,34,19.3L34,19.3z"/>
<path class="st14" d="M31.7,28.1c0.1-0.1,0.2-0.1,0.2-0.2C31.8,28,31.8,28.1,31.7,28.1z"/>
<path class="st15" d="M32,27.9C32,27.8,32,27.8,32,27.9C32,27.8,32,27.8,32,27.9z"/>
<path class="st16" d="M34,19.2C34,19.2,34,19.2,34,19.2l-0.1-0.1C33.9,19.2,34,19.2,34,19.2z"/>
<path class="st17" d="M34,19.2C34,19.2,34,19.2,34,19.2l-0.1-0.1C33.9,19.2,34,19.2,34,19.2z"/>
<path class="st18" d="M34.3,20.1L34.3,20.1L34.3,20.1L34.3,20.1z"/>
<path class="st19" d="M34.3,20.1L34.3,20.1L34.3,20.1L34.3,20.1z"/>
<path class="st20" d="M34.2,19.7c-0.1-0.1-0.1-0.3-0.2-0.4l0-0.1C34.1,19.4,34.1,19.6,34.2,19.7z"/>
<path class="st21" d="M34.2,19.7c-0.1-0.1-0.1-0.3-0.2-0.4l0-0.1C34.1,19.4,34.1,19.6,34.2,19.7z"/>
<path class="st22" d="M34.4,20.2L34.4,20.2L34.4,20.2C34.4,20.1,34.4,20.1,34.4,20.2z"/>
<path class="st23" d="M34.4,20.2L34.4,20.2L34.4,20.2C34.4,20.1,34.4,20.1,34.4,20.2z"/>
<path class="st24" d="M24,4.8L24,4.8c-1.7-1.4-3.9-1.9-6.1-1.3c-0.7,0.1-1.3,0.4-1.9,0.7c0,0,0.1,0,0.1,0l0,0
	c0.8-0.2,2.2,0.4,3.7,1.6c1.2-0.3,2.4-0.6,3.5-0.7L24,4.8z"/>
<path class="st25" d="M2.5,3C2.4,3,2.4,3,2.3,3c0,0.1,0,0.1,0,0.1C2.9,5,3.4,6.9,4,8.7c0,0.2,0,0.2,0.2,0.2c1.9,0,3.7,0,5.6,0
	c1.7,0,3.4,0,5.1,0c0.9,0,1.6,0.4,2.1,1.3c0.1,0.2,0.2,0.4,0.2,0.6c0,2.4,0,4.8,0,7.2c-0.1,0-0.1-0.1-0.1-0.1
	c-0.9-0.9-1.8-1.8-2.6-2.6c-0.1-0.1-0.2-0.2-0.4-0.2C11,15,8,15,4.9,15c-0.3,0-0.2,0-0.2,0.2c0,1.8,0,3.6,0,5.4c0,0.3,0,0.3,0.2,0.3
	c4,0,8,0,12,0c0.1,0,0.2,0,0.2,0c0,5,0,11.8,0,15.8c0,0.3,0,0.3,0.3,0.3c1.8,0,3.5,0,5.3,0c0.3,0,0.3,0,0.3-0.3c0-7.8,0-19.7,0-27.5
	c0-0.3,0-0.3,0.3-0.3c3.3,0,6.7,0,10,0c0.1,0,0.3,0,0.4,0c1.1,0.1,1.9,1,1.9,2.1c0,1.6,0,3.2,0,4.8c0,0.8-0.4,1.4-1,1.8
	c-0.4,0.2-0.8,0.3-1.3,0.3c-2,0-4,0-6,0c-0.2,0-0.2,0-0.3,0.2c-0.3,1-0.6,1.9-0.9,2.9c-0.3,0.8-0.5,1.7-0.8,2.5
	c-0.1,0.2-0.1,0.2,0.2,0.2c2.7,0,5.4,0,8,0c0.5,0,0.9,0,1.4-0.1c1.9-0.3,3.4-1.2,4.7-2.7c1.3-1.5,1.9-3.2,1.9-5.1c0-1.6,0-3.3,0-4.9
	c0-0.6-0.1-1.2-0.2-1.8c-0.8-3.6-4-6.2-7.7-6.2L2.5,3z"/>
</svg>
